<svg width="127" height="81" viewBox="0 0 127 81" fill="none" xmlns="http://www.w3.org/2000/svg">
<path d="M29.7461 79.5145C33.7991 80.6445 38.1046 81.1535 42.5389 80.9417C43.5008 80.8967 44.4532 80.8186 45.3937 80.7037C45.494 80.693 45.5939 80.6827 45.6947 80.6702C53.2042 79.7062 60.033 76.7017 65.6423 72.2559C65.9395 72.0196 66.2328 71.7803 66.5227 71.5363C66.5244 71.5321 66.5304 71.5303 66.5343 71.523C73.2795 65.3134 79.7915 57.4326 86.0414 47.6601C86.9587 46.2227 88.0265 43.4095 87.7461 40.5808C87.4763 37.8555 85.9552 35.4497 83.4619 33.8004C83.3539 36.467 82.5399 40.2266 79.4861 44.6471C79.2267 45.0232 66.8019 65.9507 42.5912 75.7394C42.5732 75.7484 42.5573 75.7544 42.5393 75.7613C38.5888 77.3553 34.3227 78.6508 29.7461 79.5145Z" fill="#8AC185"/>
<path d="M0.0468761 42.4348C0.901986 60.3415 13.2629 74.9766 29.643 79.5279C33.6959 80.6579 38.0002 81.1669 42.4344 80.9517C43.4302 80.9058 44.4187 80.8251 45.3935 80.7038C45.4938 80.6931 45.5937 80.6828 45.6945 80.6703C53.2039 79.7063 60.0328 76.7018 65.6421 72.256C65.9392 72.0197 66.2326 71.7805 66.5225 71.5364C66.5276 71.5322 66.5341 71.5257 66.5409 71.5197C66.5366 71.5232 66.5366 71.5232 66.5341 71.5232C66.4586 71.566 66.3801 71.6102 66.3003 71.6557C61.5595 74.3175 56.1432 75.9509 50.3389 76.2288C47.6753 76.3536 45.0658 76.1902 42.5386 75.7614C42.5215 75.7597 42.5039 75.7545 42.488 75.7528C26.1273 72.9568 13.3225 59.1035 12.4983 41.8383C11.5463 21.8937 26.9443 4.95106 46.8897 3.99775C52.7888 3.71814 58.4268 4.86615 63.4636 7.1403C56.4173 2.28281 47.7795 -0.394452 38.5693 0.0472545C16.2288 1.11293 -1.01922 20.0913 0.0468761 42.4348Z" fill="#8AC185"/>
<path d="M70.6568 45.0698C67.1986 40.9598 66.0274 37.2949 65.6663 34.652C63.3386 36.5307 61.9483 39.0678 62.0469 41.8068C62.0937 42.5482 62.2266 43.282 62.4183 44.0192C62.8514 45.6749 63.5247 47.2393 64.4193 48.6914C64.74 49.2142 81.0643 73.4326 88.8053 78.7339C88.8448 78.4912 91.5885 66.6105 91.5885 66.6105C86.9382 63.1965 81.4957 57.5294 77.3171 52.8572C73.726 48.8381 71.068 45.554 70.6568 45.0698Z" fill="#8AC185"/>
<path d="M63.2533 37.1171C63.481 36.3967 65.1848 31.2291 65.7818 29.3529C65.7818 29.3529 65.7564 29.4293 65.7196 29.5738C65.7414 29.497 65.7599 29.425 65.7818 29.3529C66.1973 28.0407 66.7351 26.8545 67.6378 25.9368C68.5877 24.9749 69.6465 24.3059 70.8348 23.9217C71.8859 23.5824 76.1743 23.3766 77.2533 23.6163C78.4763 23.8856 79.5917 24.4504 80.6304 25.3167C81.6189 26.1452 82.266 27.2726 82.8029 28.5381C82.8188 28.5802 82.8338 28.6201 82.8531 28.6612C82.8213 28.5823 82.8029 28.5381 82.8029 28.5381C83.577 30.3509 85.7645 35.3293 86.0578 36.0279C86.1299 36.1977 86.2028 36.3696 86.2748 36.542C77.7692 30.7527 71.1187 31.0602 63.0869 37.6476C63.1435 37.4713 63.2006 37.2929 63.2533 37.1171Z" fill="#8AC185"/>
<path d="M59.6953 28.316V51.305H54.3841V41.8829H45.2206V51.305H39.9111V28.316H45.2206V37.2205H54.3841V28.316H59.6953Z" fill="#576166"/>
<path d="M89.7393 51.3051V28.3162H99.5516C100.651 28.3162 101.66 28.5434 102.578 28.9959C103.496 29.45 104.283 30.0444 104.943 30.7769C105.599 31.5119 106.118 32.3438 106.495 33.2701C106.873 34.1999 107.062 35.1377 107.062 36.0868C107.062 37.104 106.885 38.0744 106.53 39.0025C106.172 39.93 105.675 40.7624 105.039 41.4945C104.402 42.2295 103.631 42.8106 102.724 43.2437C101.816 43.6751 100.814 43.8913 99.7115 43.8913H95.0496V51.3046L89.7393 51.3051ZM95.0496 39.2615H99.3882C100.015 39.2615 100.555 38.9917 101.007 38.4497C101.461 37.9128 101.687 37.1233 101.687 36.0868C101.687 35.5499 101.616 35.085 101.477 34.6965C101.336 34.3079 101.147 33.9829 100.91 33.7239C100.674 33.4648 100.402 33.2757 100.1 33.1574C99.7977 33.0403 99.4954 32.979 99.1939 32.979H95.0496V39.2615Z" fill="#576166"/>
<path d="M126.069 46.6431V51.3051H109.911V28.3162H125.776V32.979H115.221V37.4479H124.287V41.7539H115.221V46.6427L126.069 46.6431Z" fill="#576166"/>
</svg>
